<svg xmlns="http://www.w3.org/2000/svg" viewBox="0 0 520 620"><rect width="520" height="620" fill="#e8f2e8"/><circle cx="260" cy="170" r="92" fill="#f1c4a5"/><path d="M168 165c8-102 176-112 186 4-35-35-67-47-104-42-30 4-56 16-82 38z" fill="#3b3b46"/><rect x="195" y="160" width="55" height="34" rx="8" fill="none" stroke="#3b3b46" stroke-width="6"/><rect x="270" y="160" width="55" height="34" rx="8" fill="none" stroke="#3b3b46" stroke-width="6"/><path d="M250 176h20" stroke="#3b3b46" stroke-width="6"/><path d="M165 280c20-70 170-70 190 0l52 235H113z" fill="#405a55"/><rect x="55" y="320" width="150" height="180" rx="8" fill="#fff" transform="rotate(-10 55 320)"/><path d="M80 365h95M80 395h105M80 425h78M80 455h95" stroke="#8a9a92" stroke-width="8"/><path d="M224 220q36 22 72 0" fill="none" stroke="#a65b55" stroke-width="5"/><text x="260" y="575" text-anchor="middle" font-family="sans-serif" font-size="24" fill="#405a55">확신사회학과</text></svg>